<svg id="Layer_1" data-name="Layer 1" xmlns="http://www.w3.org/2000/svg" xmlns:xlink="http://www.w3.org/1999/xlink" viewBox="0 0 450.88 438.73"><defs><style>.cls-1{fill:url(#New_Gradient_Swatch_1);}.cls-2{fill:url(#New_Gradient_Swatch_1-2);}.cls-3{fill:url(#New_Gradient_Swatch_1-4);}.cls-4{fill:url(#New_Gradient_Swatch_1-5);}.cls-5{fill:url(#New_Gradient_Swatch_1-6);}.cls-6{fill:url(#New_Gradient_Swatch_1-7);}.cls-7{fill:url(#New_Gradient_Swatch_1-8);}</style><linearGradient id="New_Gradient_Swatch_1" x1="225.44" y1="127.02" x2="225.44" y2="313.86" gradientUnits="userSpaceOnUse"><stop offset="0" stop-color="#1dd5e6"/><stop offset="1" stop-color="#46aef7"/></linearGradient><linearGradient id="New_Gradient_Swatch_1-2" x1="225.44" y1="175.22" x2="225.44" y2="265.66" xlink:href="#New_Gradient_Swatch_1"/><linearGradient id="New_Gradient_Swatch_1-4" x1="225.44" y1="94.85" x2="225.44" y2="346.03" xlink:href="#New_Gradient_Swatch_1"/><linearGradient id="New_Gradient_Swatch_1-5" x1="64.83" y1="11" x2="64.83" y2="108.66" xlink:href="#New_Gradient_Swatch_1"/><linearGradient id="New_Gradient_Swatch_1-6" x1="386.05" y1="11" x2="386.05" y2="108.66" xlink:href="#New_Gradient_Swatch_1"/><linearGradient id="New_Gradient_Swatch_1-7" x1="386.05" y1="332.22" x2="386.05" y2="429.88" xlink:href="#New_Gradient_Swatch_1"/><linearGradient id="New_Gradient_Swatch_1-8" x1="64.83" y1="332.22" x2="64.83" y2="429.88" xlink:href="#New_Gradient_Swatch_1"/></defs><path class="cls-1" d="M225.44,313.86a93.42,93.42,0,1,1,93.42-93.42A93.53,93.53,0,0,1,225.44,313.86Zm0-173a79.61,79.61,0,1,0,79.61,79.61A79.7,79.7,0,0,0,225.44,140.83Z"/><path class="cls-2" d="M225.44,265.66a45.26,45.26,0,0,1-45.22-45.22,6.91,6.91,0,0,1,13.81,0A31.41,31.41,0,1,0,225.44,189a6.91,6.91,0,0,1,0-13.81,45.22,45.22,0,1,1,0,90.44Z"/><path class="cls-1" d="M225.44,313.86c-71.18,0-135-34.49-166.46-90A6.91,6.91,0,0,1,59,217c31.5-55.52,95.28-90,166.46-90s135,34.49,166.46,90a6.91,6.91,0,0,1,0,6.82C360.4,279.37,296.62,313.86,225.44,313.86ZM73,220.44c29.71,49.2,87.72,79.61,152.45,79.61s122.74-30.41,152.45-79.61c-29.71-49.2-87.72-79.61-152.45-79.61S102.7,171.24,73,220.44Z"/><path class="cls-3" d="M225.44,346C153.9,346,90,298.92,58.61,223.08a6.9,6.9,0,0,1,0-5.28C90,142,153.9,94.85,225.44,94.85S360.91,142,392.27,217.8a6.9,6.9,0,0,1,0,5.28C360.91,298.92,297,346,225.44,346Zm-153-125.59c29.56,69,87.94,111.78,153,111.78s123.4-42.75,153-111.78c-29.55-69-87.93-111.78-153-111.78S102,151.41,72.48,220.44Z"/><path class="cls-4" d="M22.9,108.66a6.9,6.9,0,0,1-6.9-6.9V17.9A6.9,6.9,0,0,1,22.9,11h83.86a6.91,6.91,0,0,1,0,13.81H29.81v77A6.9,6.9,0,0,1,22.9,108.66Z"/><path class="cls-5" d="M428,108.66a6.9,6.9,0,0,1-6.9-6.9V24.81H344.12a6.91,6.91,0,0,1,0-13.81H428a6.9,6.9,0,0,1,6.91,6.9v83.86A6.9,6.9,0,0,1,428,108.66Z"/><path class="cls-6" d="M428,429.88H344.12a6.91,6.91,0,0,1,0-13.81h76.95V339.13a6.91,6.91,0,1,1,13.81,0V423A6.9,6.9,0,0,1,428,429.88Z"/><path class="cls-7" d="M106.76,429.88H22.9A6.9,6.9,0,0,1,16,423V339.13a6.91,6.91,0,1,1,13.81,0v76.94h77a6.91,6.91,0,0,1,0,13.81Z"/></svg>