<svg id="Layer_1" data-name="Layer 1" xmlns="http://www.w3.org/2000/svg" xmlns:xlink="http://www.w3.org/1999/xlink" viewBox="0 0 450.88 438.73"><defs><style>.cls-1{fill:url(#New_Gradient_Swatch_1);}.cls-2{fill:url(#New_Gradient_Swatch_1-2);}.cls-3{fill:url(#New_Gradient_Swatch_1-3);}.cls-4{fill:url(#New_Gradient_Swatch_1-4);}.cls-5{fill:url(#New_Gradient_Swatch_1-5);}.cls-6{fill:url(#New_Gradient_Swatch_1-6);}.cls-7{fill:url(#New_Gradient_Swatch_1-7);}.cls-8{fill:url(#New_Gradient_Swatch_1-8);}.cls-9{fill:url(#New_Gradient_Swatch_1-9);}.cls-10{fill:url(#New_Gradient_Swatch_1-10);}.cls-11{fill:url(#New_Gradient_Swatch_1-11);}.cls-12{fill:url(#New_Gradient_Swatch_1-12);}.cls-13{fill:url(#New_Gradient_Swatch_1-13);}.cls-14{fill:url(#New_Gradient_Swatch_1-14);}.cls-15{fill:url(#New_Gradient_Swatch_1-15);}.cls-16{fill:url(#New_Gradient_Swatch_1-16);}.cls-17{fill:url(#New_Gradient_Swatch_1-17);}</style><linearGradient id="New_Gradient_Swatch_1" x1="316.51" y1="48" x2="316.51" y2="367.08" gradientUnits="userSpaceOnUse"><stop offset="0" stop-color="#1dd5e6"/><stop offset="1" stop-color="#46aef7"/></linearGradient><linearGradient id="New_Gradient_Swatch_1-2" x1="136.46" x2="136.46" y2="367.08" xlink:href="#New_Gradient_Swatch_1"/><linearGradient id="New_Gradient_Swatch_1-3" x1="226.49" y1="75.88" x2="226.49" y2="393.8" xlink:href="#New_Gradient_Swatch_1"/><linearGradient id="New_Gradient_Swatch_1-4" x1="131.92" y1="88.02" x2="131.92" y2="126.69" xlink:href="#New_Gradient_Swatch_1"/><linearGradient id="New_Gradient_Swatch_1-5" x1="131.92" y1="154.47" x2="131.92" y2="177.33" xlink:href="#New_Gradient_Swatch_1"/><linearGradient id="New_Gradient_Swatch_1-6" x1="131.92" y1="191.61" x2="131.92" y2="214.47" xlink:href="#New_Gradient_Swatch_1"/><linearGradient id="New_Gradient_Swatch_1-7" x1="131.92" y1="229.66" x2="131.92" y2="252.51" xlink:href="#New_Gradient_Swatch_1"/><linearGradient id="New_Gradient_Swatch_1-8" x1="131.92" y1="267.7" x2="131.92" y2="290.56" xlink:href="#New_Gradient_Swatch_1"/><linearGradient id="New_Gradient_Swatch_1-9" x1="131.92" y1="306.65" x2="131.92" y2="329.51" xlink:href="#New_Gradient_Swatch_1"/><linearGradient id="New_Gradient_Swatch_1-10" x1="226.49" y1="353.27" x2="226.49" y2="387.64" xlink:href="#New_Gradient_Swatch_1"/><linearGradient id="New_Gradient_Swatch_1-11" x1="323.57" y1="220.22" x2="323.57" y2="280.88" xlink:href="#New_Gradient_Swatch_1"/><linearGradient id="New_Gradient_Swatch_1-12" x1="336.12" y1="268.74" x2="336.12" y2="305.98" xlink:href="#New_Gradient_Swatch_1"/><linearGradient id="New_Gradient_Swatch_1-13" x1="332.14" y1="116.05" x2="332.14" y2="167.1" xlink:href="#New_Gradient_Swatch_1"/><linearGradient id="New_Gradient_Swatch_1-14" x1="295.33" y1="134.04" x2="295.33" y2="200.56" xlink:href="#New_Gradient_Swatch_1"/><linearGradient id="New_Gradient_Swatch_1-15" x1="350.55" y1="153.29" x2="350.55" y2="234.03" xlink:href="#New_Gradient_Swatch_1"/><linearGradient id="New_Gradient_Swatch_1-16" x1="296.59" y1="267.07" x2="296.59" y2="331.08" xlink:href="#New_Gradient_Swatch_1"/><linearGradient id="New_Gradient_Swatch_1-17" x1="275.25" y1="98.07" x2="275.25" y2="147.85" xlink:href="#New_Gradient_Swatch_1"/></defs><path class="cls-1" d="M406.54,367.08h-180a6.91,6.91,0,0,1-6.91-6.91v-256A56.26,56.26,0,0,1,275.77,48H406.54a6.91,6.91,0,0,1,6.91,6.91V360.17A6.91,6.91,0,0,1,406.54,367.08ZM233.39,353.27H399.64V61.81H275.77a42.43,42.43,0,0,0-42.38,42.38Z"/><path class="cls-2" d="M226.49,367.08H46.43a6.91,6.91,0,0,1-6.91-6.91V54.91A6.91,6.91,0,0,1,46.43,48H177.2a56.26,56.26,0,0,1,56.19,56.19v256A6.9,6.9,0,0,1,226.49,367.08ZM53.33,353.27H219.58V104.19A42.43,42.43,0,0,0,177.2,61.81H53.33Z"/><path class="cls-3" d="M435.07,393.8H247.76a7,7,0,0,1-1.92-.27l-19.35-5.61-19.36,5.61a7,7,0,0,1-1.92.27H17.91A6.9,6.9,0,0,1,11,386.9V82.79a6.91,6.91,0,0,1,6.91-6.91h10a6.91,6.91,0,0,1,0,13.81H24.81V380H204.23l20.34-5.89a6.78,6.78,0,0,1,3.84,0L248.74,380H428.16V89.69h-3.11a6.91,6.91,0,1,1,0-13.81h10a6.9,6.9,0,0,1,6.9,6.91V386.9A6.9,6.9,0,0,1,435.07,393.8Z"/><path class="cls-4" d="M190.31,126.69H73.53a6.9,6.9,0,0,1-6.91-6.9V94.93A6.91,6.91,0,0,1,73.53,88H190.31a6.91,6.91,0,0,1,6.91,6.91v24.86A6.9,6.9,0,0,1,190.31,126.69ZM80.43,112.88h103v-11h-103Z"/><path class="cls-5" d="M142.21,177.33c-4.88,0-10-1.64-15-6.41-4.42-4.17-8-3-17.05,1.23-8.76,4.14-20.75,9.79-32.42-1.23a6.9,6.9,0,1,1,9.48-10c4.42,4.17,8,3.05,17-1.22,8.76-4.14,20.75-9.79,32.42,1.22,4.42,4.17,8,3.05,17.05-1.22,8.75-4.13,20.74-9.79,32.42,1.22a6.9,6.9,0,0,1-9.48,10c-4.43-4.17-8-3-17.05,1.23C154.63,174.49,148.62,177.33,142.21,177.33Z"/><path class="cls-6" d="M142.21,214.47c-4.88,0-10-1.65-15-6.41-4.42-4.17-8-3.05-17.05,1.22-8.76,4.14-20.75,9.79-32.42-1.22a6.9,6.9,0,0,1,9.48-10c4.42,4.17,8,3,17-1.22C113,192.66,125,187,136.66,198c4.43,4.17,8,3,17.05-1.22,8.75-4.14,20.75-9.8,32.42,1.22a6.9,6.9,0,0,1-9.48,10c-4.43-4.17-8-3.05-17.05,1.22C154.63,211.63,148.61,214.47,142.21,214.47Z"/><path class="cls-7" d="M142.21,252.51c-4.88,0-10-1.64-15-6.4-4.42-4.18-8-3.05-17.05,1.22-8.76,4.13-20.75,9.78-32.42-1.22a6.91,6.91,0,0,1,9.48-10.05c4.42,4.17,8,3.05,17-1.22,8.75-4.13,20.75-9.79,32.42,1.22,4.43,4.17,8,3.05,17.05-1.22,8.76-4.13,20.75-9.78,32.42,1.22a6.91,6.91,0,0,1-9.48,10.05c-4.42-4.17-8-3.05-17.05,1.22C154.63,249.67,148.61,252.51,142.21,252.51Z"/><path class="cls-8" d="M142.21,290.55c-4.88,0-10-1.64-15-6.4-4.42-4.17-8-3-17.05,1.23-8.76,4.13-20.75,9.79-32.42-1.23a6.9,6.9,0,1,1,9.48-10c4.42,4.17,8,3,17-1.22,8.76-4.14,20.75-9.79,32.42,1.22,4.42,4.17,8,3.05,17.05-1.22,8.75-4.14,20.74-9.79,32.42,1.22a6.9,6.9,0,0,1-9.48,10c-4.43-4.18-8-3-17.05,1.23C154.63,287.72,148.62,290.55,142.21,290.55Z"/><path class="cls-9" d="M142.21,329.5c-4.88,0-10-1.64-15-6.4-4.42-4.17-8-3.05-17.05,1.22-8.76,4.14-20.75,9.8-32.42-1.22a6.9,6.9,0,1,1,9.48-10c4.42,4.17,8,3,17-1.22,8.76-4.14,20.75-9.78,32.42,1.22,4.42,4.16,8,3.05,17.05-1.22,8.75-4.14,20.74-9.8,32.42,1.22a6.9,6.9,0,0,1-9.48,10c-4.43-4.17-8-3.05-17.05,1.22C154.63,326.67,148.62,329.5,142.21,329.5Z"/><path class="cls-10" d="M226.49,387.64a6.91,6.91,0,0,1-6.91-6.91V360.17a6.91,6.91,0,0,1,13.81,0v20.56A6.9,6.9,0,0,1,226.49,387.64Z"/><path class="cls-11" d="M296.59,280.88a6.91,6.91,0,0,1-6.91-6.91v-27a6.9,6.9,0,0,1,6.91-6.9h47.05V227.12a6.91,6.91,0,0,1,13.81,0v19.82a6.9,6.9,0,0,1-6.9,6.91H303.49V274A6.91,6.91,0,0,1,296.59,280.88Z"/><path class="cls-12" d="M350.55,306H321.69a6.91,6.91,0,1,1,0-13.81h21.95V275.65a6.91,6.91,0,1,1,13.81,0v23.42A6.9,6.9,0,0,1,350.55,306Z"/><path class="cls-13" d="M350.55,167.1a6.91,6.91,0,0,1-6.91-6.91V129.86h-29.9a6.91,6.91,0,1,1,0-13.81h36.81a6.9,6.9,0,0,1,6.9,6.91v37.23A6.9,6.9,0,0,1,350.55,167.1Z"/><path class="cls-14" d="M315.41,200.56H275.25a6.9,6.9,0,0,1-6.9-6.9V141a6.91,6.91,0,1,1,13.81,0v45.8h33.25a6.91,6.91,0,1,1,0,13.81Z"/><path class="cls-15" d="M350.55,234a40.37,40.37,0,1,1,40.37-40.37A40.42,40.42,0,0,1,350.55,234Zm0-66.93a26.56,26.56,0,1,0,26.56,26.56A26.58,26.58,0,0,0,350.55,167.1Z"/><path class="cls-16" d="M296.59,331.08a32,32,0,1,1,32-32A32,32,0,0,1,296.59,331.08Zm0-50.2a18.2,18.2,0,1,0,18.19,18.19A18.22,18.22,0,0,0,296.59,280.88Z"/><path class="cls-17" d="M275.25,147.85A24.89,24.89,0,1,1,300.14,123,24.92,24.92,0,0,1,275.25,147.85Zm0-36A11.08,11.08,0,1,0,286.33,123,11.09,11.09,0,0,0,275.25,111.88Z"/></svg>