<svg id="Layer_1" data-name="Layer 1" xmlns="http://www.w3.org/2000/svg" xmlns:xlink="http://www.w3.org/1999/xlink" viewBox="0 0 371.83 438.73"><defs><style>.cls-1{fill:url(#New_Gradient_Swatch_1);}.cls-2{fill:url(#New_Gradient_Swatch_1-2);}.cls-3{fill:url(#New_Gradient_Swatch_1-3);}.cls-4{fill:url(#New_Gradient_Swatch_1-4);}.cls-5{fill:url(#New_Gradient_Swatch_1-5);}.cls-6{fill:url(#New_Gradient_Swatch_1-6);}.cls-7{fill:url(#New_Gradient_Swatch_1-7);}.cls-8{fill:url(#New_Gradient_Swatch_1-8);}.cls-9{fill:url(#New_Gradient_Swatch_1-9);}.cls-10{fill:url(#New_Gradient_Swatch_1-10);}.cls-11{fill:url(#New_Gradient_Swatch_1-11);}.cls-12{fill:url(#New_Gradient_Swatch_1-12);}.cls-13{fill:url(#New_Gradient_Swatch_1-13);}.cls-14{fill:url(#New_Gradient_Swatch_1-14);}.cls-15{fill:url(#New_Gradient_Swatch_1-15);}.cls-16{fill:url(#New_Gradient_Swatch_1-16);}.cls-17{fill:url(#New_Gradient_Swatch_1-17);}.cls-18{fill:url(#New_Gradient_Swatch_1-18);}.cls-19{fill:url(#New_Gradient_Swatch_1-19);}.cls-20{fill:url(#New_Gradient_Swatch_1-20);}.cls-21{fill:url(#New_Gradient_Swatch_1-21);}.cls-22{fill:url(#New_Gradient_Swatch_1-22);}.cls-23{fill:url(#New_Gradient_Swatch_1-23);}</style><linearGradient id="New_Gradient_Swatch_1" x1="244.34" y1="11" x2="244.34" y2="424.83" gradientUnits="userSpaceOnUse"><stop offset="0" stop-color="#1dd5e6"/><stop offset="1" stop-color="#46aef7"/></linearGradient><linearGradient id="New_Gradient_Swatch_1-2" x1="210.41" y1="256.43" x2="210.41" y2="313.73" xlink:href="#New_Gradient_Swatch_1"/><linearGradient id="New_Gradient_Swatch_1-3" x1="231.31" y1="252.6" x2="231.31" y2="282.87" xlink:href="#New_Gradient_Swatch_1"/><linearGradient id="New_Gradient_Swatch_1-4" x1="236.57" y1="221.91" x2="236.57" y2="247.61" xlink:href="#New_Gradient_Swatch_1"/><linearGradient id="New_Gradient_Swatch_1-5" x1="238.75" y1="185.15" x2="238.75" y2="216.64" xlink:href="#New_Gradient_Swatch_1"/><linearGradient id="New_Gradient_Swatch_1-6" x1="231.85" y1="153.13" x2="231.85" y2="179.79" xlink:href="#New_Gradient_Swatch_1"/><linearGradient id="New_Gradient_Swatch_1-7" x1="212.56" y1="133.79" x2="212.56" y2="175.56" xlink:href="#New_Gradient_Swatch_1"/><linearGradient id="New_Gradient_Swatch_1-8" x1="188.5" y1="123.31" x2="188.5" y2="140.72" xlink:href="#New_Gradient_Swatch_1"/><linearGradient id="New_Gradient_Swatch_1-9" x1="185.38" y1="176.17" x2="185.38" y2="189.98" xlink:href="#New_Gradient_Swatch_1"/><linearGradient id="New_Gradient_Swatch_1-10" x1="184.41" y1="241.53" x2="184.41" y2="255.34" xlink:href="#New_Gradient_Swatch_1"/><linearGradient id="New_Gradient_Swatch_1-11" x1="183.04" y1="304.48" x2="183.04" y2="327.4" xlink:href="#New_Gradient_Swatch_1"/><linearGradient id="New_Gradient_Swatch_1-12" x1="211.85" y1="190.59" x2="211.85" y2="234.03" xlink:href="#New_Gradient_Swatch_1"/><linearGradient id="New_Gradient_Swatch_1-13" x1="95.61" y1="224.67" x2="95.61" y2="238.49" xlink:href="#New_Gradient_Swatch_1"/><linearGradient id="New_Gradient_Swatch_1-14" x1="95.61" y1="69.26" x2="95.61" y2="393.9" xlink:href="#New_Gradient_Swatch_1"/><linearGradient id="New_Gradient_Swatch_1-15" x1="136.07" y1="69.26" x2="136.07" y2="393.9" xlink:href="#New_Gradient_Swatch_1"/><linearGradient id="New_Gradient_Swatch_1-16" x1="95.61" y1="150.18" x2="95.61" y2="312.98" xlink:href="#New_Gradient_Swatch_1"/><linearGradient id="New_Gradient_Swatch_1-17" x1="253.42" y1="133.88" x2="253.42" y2="174.12" xlink:href="#New_Gradient_Swatch_1"/><linearGradient id="New_Gradient_Swatch_1-18" x1="211.85" y1="161.75" x2="211.85" y2="204.4" xlink:href="#New_Gradient_Swatch_1"/><linearGradient id="New_Gradient_Swatch_1-19" x1="268.31" y1="196.84" x2="268.31" y2="249.09" xlink:href="#New_Gradient_Swatch_1"/><linearGradient id="New_Gradient_Swatch_1-20" x1="210.41" y1="226.63" x2="210.41" y2="270.24" xlink:href="#New_Gradient_Swatch_1"/><linearGradient id="New_Gradient_Swatch_1-21" x1="250.87" y1="265.6" x2="250.87" y2="304.4" xlink:href="#New_Gradient_Swatch_1"/><linearGradient id="New_Gradient_Swatch_1-22" x1="210.41" y1="299.92" x2="210.41" y2="350.25" xlink:href="#New_Gradient_Swatch_1"/><linearGradient id="New_Gradient_Swatch_1-23" x1="214.25" y1="112.74" x2="214.25" y2="147.69" xlink:href="#New_Gradient_Swatch_1"/></defs><path class="cls-1" d="M256.4,424.83H197.78a6.91,6.91,0,1,1,0-13.81H256.4a47.7,47.7,0,0,0,47.65-47.65V356.1l-7.82-6A6.86,6.86,0,0,1,294.4,348a19,19,0,0,1,6.65-25.57l16-9.79V293.91a14,14,0,0,1,14-14h6a6,6,0,0,0,5-9.32l-33.75-51.27a6.92,6.92,0,0,1-1-5A162.2,162.2,0,0,0,145.59,24.82V33a6.91,6.91,0,1,1-13.81,0V18.12a6.91,6.91,0,0,1,6.56-6.9,176.25,176.25,0,0,1,185.22,176A172,172,0,0,1,321.35,214l32.28,49a19.82,19.82,0,0,1-16.56,30.72h-6l-.18,22.81a6.89,6.89,0,0,1-3.3,5.89l-19.34,11.82a5.18,5.18,0,0,0-2.27,5.95l9.16,7a6.88,6.88,0,0,1,2.72,5.49v10.69A61.53,61.53,0,0,1,256.4,424.83Z"/><path class="cls-2" d="M210.41,313.73a6.91,6.91,0,0,1-6.91-6.91V263.33a6.91,6.91,0,0,1,13.81,0v43.49A6.9,6.9,0,0,1,210.41,313.73Z"/><path class="cls-3" d="M242.26,282.87a6.86,6.86,0,0,1-4.14-1.39L216.21,265a6.9,6.9,0,0,1,8.29-11l21.92,16.45a6.91,6.91,0,0,1-4.16,12.43Z"/><path class="cls-4" d="M223.13,247.61a6.91,6.91,0,0,1-2.8-13.22l26.89-11.88a6.9,6.9,0,1,1,5.58,12.62L225.92,247A6.93,6.93,0,0,1,223.13,247.61Z"/><path class="cls-5" d="M254.38,216.64a7,7,0,0,1-3.4-.89l-31.26-17.69a6.91,6.91,0,0,1,6.81-12l31.25,17.69a6.9,6.9,0,0,1-3.4,12.91Z"/><path class="cls-6" d="M222.05,179.79a6.9,6.9,0,0,1-3.79-12.68l19.62-12.85a6.91,6.91,0,1,1,7.56,11.56l-19.62,12.84A6.86,6.86,0,0,1,222.05,179.79Z"/><path class="cls-7" d="M211.85,175.56a7,7,0,0,1-6.9-7.25l1.43-28a6.9,6.9,0,1,1,13.79.7l-1.43,28A6.9,6.9,0,0,1,211.85,175.56Z"/><path class="cls-8" d="M173.31,140.72a6.9,6.9,0,0,1-.8-13.76l30.35-3.6a6.9,6.9,0,1,1,1.63,13.71l-30.35,3.6A5.87,5.87,0,0,1,173.31,140.72Z"/><path class="cls-9" d="M197.43,190H173.32a6.91,6.91,0,0,1,0-13.81h24.11a6.91,6.91,0,1,1,0,13.81Z"/><path class="cls-10" d="M195.51,255.34H173.32a6.91,6.91,0,0,1,0-13.81h22.19a6.91,6.91,0,0,1,0,13.81Z"/><path class="cls-11" d="M192.74,327.4a6.82,6.82,0,0,1-2.92-.66l-19.43-9.1a6.9,6.9,0,0,1,5.86-12.5l19.43,9.1a6.91,6.91,0,0,1-2.94,13.16Z"/><path class="cls-12" d="M211.85,234c-3.82,0-6.91-4.59-6.91-10.25V200.84c0-5.66,3.09-10.25,6.91-10.25s6.9,4.59,6.9,10.25v22.94C218.75,229.44,215.66,234,211.85,234Z"/><path class="cls-13" d="M173.32,238.49H17.9a6.91,6.91,0,0,1,0-13.82H173.32a6.91,6.91,0,0,1,0,13.82Z"/><path class="cls-14" d="M173.32,393.9C83.82,393.9,11,321.09,11,231.58S83.82,69.26,173.32,69.26a6.9,6.9,0,0,1,6.91,6.9V387A6.9,6.9,0,0,1,173.32,393.9Zm-6.9-310.67C87.72,86.84,24.81,152,24.81,231.58S87.72,376.32,166.42,379.93Z"/><path class="cls-15" d="M173.32,393.9c-45.64,0-81.4-71.3-81.4-162.32s35.76-162.32,81.4-162.32a6.9,6.9,0,0,1,6.91,6.9V387A6.9,6.9,0,0,1,173.32,393.9Zm-6.9-310c-33.54,7.87-60.69,72.31-60.69,147.7s27.15,139.83,60.69,147.7Z"/><path class="cls-16" d="M173.32,313C82.3,313,11,277.23,11,231.58s71.3-81.4,162.32-81.4a6.9,6.9,0,0,1,6.91,6.9v149A6.9,6.9,0,0,1,173.32,313Zm-6.9-148.92C89,165.77,24.81,196,24.81,231.58S89,297.39,166.42,299.1Z"/><path class="cls-17" d="M253.42,174.12A20.12,20.12,0,1,1,273.54,154,20.14,20.14,0,0,1,253.42,174.12Zm0-26.43a6.31,6.31,0,1,0,6.31,6.31A6.32,6.32,0,0,0,253.42,147.69Z"/><path class="cls-18" d="M211.85,204.4a21.33,21.33,0,1,1,21.32-21.32A21.35,21.35,0,0,1,211.85,204.4Zm0-28.84a7.52,7.52,0,1,0,7.51,7.52A7.52,7.52,0,0,0,211.85,175.56Z"/><path class="cls-19" d="M268.32,249.09A26.13,26.13,0,1,1,294.44,223,26.16,26.16,0,0,1,268.32,249.09Zm0-38.44A12.32,12.32,0,1,0,280.63,223,12.32,12.32,0,0,0,268.32,210.65Z"/><path class="cls-20" d="M210.41,270.24a21.81,21.81,0,1,1,21.8-21.8A21.83,21.83,0,0,1,210.41,270.24Zm0-29.8a8,8,0,1,0,8,8A8,8,0,0,0,210.41,240.44Z"/><path class="cls-21" d="M250.87,304.4a19.4,19.4,0,1,1,19.4-19.4A19.42,19.42,0,0,1,250.87,304.4Zm0-25a5.59,5.59,0,1,0,5.59,5.59A5.6,5.6,0,0,0,250.87,279.41Z"/><path class="cls-22" d="M210.41,350.25a25.17,25.17,0,1,1,25.16-25.17A25.2,25.2,0,0,1,210.41,350.25Zm0-36.52a11.36,11.36,0,1,0,11.35,11.35A11.36,11.36,0,0,0,210.41,313.73Z"/><path class="cls-23" d="M214.25,147.69a17.48,17.48,0,1,1,17.48-17.48A17.5,17.5,0,0,1,214.25,147.69Zm0-21.14a3.67,3.67,0,1,0,3.67,3.66A3.67,3.67,0,0,0,214.25,126.55Z"/></svg>