<svg id="Layer_1" data-name="Layer 1" xmlns="http://www.w3.org/2000/svg" xmlns:xlink="http://www.w3.org/1999/xlink" viewBox="0 0 614.05 438.73"><defs><style>.cls-1,.cls-10,.cls-11,.cls-12,.cls-13,.cls-14,.cls-15,.cls-16,.cls-17,.cls-18,.cls-19,.cls-2,.cls-20,.cls-21,.cls-22,.cls-23,.cls-24,.cls-25,.cls-26,.cls-27,.cls-28,.cls-29,.cls-3,.cls-30,.cls-31,.cls-32,.cls-33,.cls-34,.cls-35,.cls-36,.cls-4,.cls-5,.cls-6,.cls-7,.cls-8,.cls-9{fill:none;stroke-miterlimit:10;stroke-width:13px;}.cls-1{stroke:url(#New_Gradient_Swatch_1);}.cls-2{stroke:url(#New_Gradient_Swatch_1-2);}.cls-3{stroke:url(#New_Gradient_Swatch_1-3);}.cls-4{stroke:url(#New_Gradient_Swatch_1-4);}.cls-5{stroke:url(#New_Gradient_Swatch_1-5);}.cls-6{stroke:url(#New_Gradient_Swatch_1-6);}.cls-7{stroke:url(#New_Gradient_Swatch_1-7);}.cls-8{stroke:url(#New_Gradient_Swatch_1-8);}.cls-9{stroke:url(#New_Gradient_Swatch_1-9);}.cls-10{stroke:url(#New_Gradient_Swatch_1-10);}.cls-11{stroke:url(#New_Gradient_Swatch_1-11);}.cls-12{stroke:url(#New_Gradient_Swatch_1-12);}.cls-13{stroke:url(#New_Gradient_Swatch_1-13);}.cls-14{stroke:url(#New_Gradient_Swatch_1-14);}.cls-15{stroke:url(#New_Gradient_Swatch_1-15);}.cls-16{stroke:url(#New_Gradient_Swatch_1-16);}.cls-17{stroke:url(#New_Gradient_Swatch_1-17);}.cls-18{stroke:url(#New_Gradient_Swatch_1-18);}.cls-19{stroke:url(#New_Gradient_Swatch_1-19);}.cls-20{stroke:url(#New_Gradient_Swatch_1-20);}.cls-21{stroke:url(#New_Gradient_Swatch_1-21);}.cls-22{stroke:url(#New_Gradient_Swatch_1-22);}.cls-23{stroke:url(#New_Gradient_Swatch_1-23);}.cls-24{stroke:url(#New_Gradient_Swatch_1-24);}.cls-25{stroke:url(#New_Gradient_Swatch_1-25);}.cls-26{stroke:url(#New_Gradient_Swatch_1-26);}.cls-27{stroke:url(#New_Gradient_Swatch_1-27);}.cls-28{stroke:url(#New_Gradient_Swatch_1-28);}.cls-29{stroke:url(#New_Gradient_Swatch_1-29);}.cls-30{stroke:url(#New_Gradient_Swatch_1-30);}.cls-31{stroke:url(#New_Gradient_Swatch_1-31);}.cls-32{stroke:url(#New_Gradient_Swatch_1-32);}.cls-33{stroke:url(#New_Gradient_Swatch_1-33);}.cls-34{stroke:url(#New_Gradient_Swatch_1-34);}.cls-35{stroke:url(#New_Gradient_Swatch_1-35);}.cls-36{stroke:url(#New_Gradient_Swatch_1-36);}</style><linearGradient id="New_Gradient_Swatch_1" x1="33.35" y1="219.3" x2="77.62" y2="219.3" gradientUnits="userSpaceOnUse"><stop offset="0" stop-color="#1dd5e6"/><stop offset="1" stop-color="#46aef7"/></linearGradient><linearGradient id="New_Gradient_Swatch_1-2" x1="84.06" y1="152.4" x2="157.07" y2="152.4" xlink:href="#New_Gradient_Swatch_1"/><linearGradient id="New_Gradient_Swatch_1-3" x1="20.41" y1="201.76" x2="152.5" y2="201.76" xlink:href="#New_Gradient_Swatch_1"/><linearGradient id="New_Gradient_Swatch_1-4" x1="33.35" y1="257.81" x2="152.5" y2="257.81" xlink:href="#New_Gradient_Swatch_1"/><linearGradient id="New_Gradient_Swatch_1-5" x1="73.35" y1="272.89" x2="157.07" y2="272.89" xlink:href="#New_Gradient_Swatch_1"/><linearGradient id="New_Gradient_Swatch_1-6" x1="441.1" y1="129.42" x2="498.53" y2="129.42" xlink:href="#New_Gradient_Swatch_1"/><linearGradient id="New_Gradient_Swatch_1-7" x1="489.33" y1="304.8" x2="546.75" y2="304.8" xlink:href="#New_Gradient_Swatch_1"/><linearGradient id="New_Gradient_Swatch_1-8" x1="529" y1="245.61" x2="572.85" y2="245.61" xlink:href="#New_Gradient_Swatch_1"/><linearGradient id="New_Gradient_Swatch_1-9" x1="502.7" y1="184.23" x2="537.77" y2="184.23" xlink:href="#New_Gradient_Swatch_1"/><linearGradient id="New_Gradient_Swatch_1-10" x1="145.45" y1="214.92" x2="460.02" y2="214.92" xlink:href="#New_Gradient_Swatch_1"/><linearGradient id="New_Gradient_Swatch_1-11" x1="343.75" y1="308.33" x2="425.11" y2="308.33" xlink:href="#New_Gradient_Swatch_1"/><linearGradient id="New_Gradient_Swatch_1-12" x1="216.15" y1="329.01" x2="330.84" y2="329.01" xlink:href="#New_Gradient_Swatch_1"/><linearGradient id="New_Gradient_Swatch_1-13" x1="170.79" y1="267.71" x2="213.35" y2="267.71" xlink:href="#New_Gradient_Swatch_1"/><linearGradient id="New_Gradient_Swatch_1-14" x1="169.67" y1="164.02" x2="224.22" y2="164.02" xlink:href="#New_Gradient_Swatch_1"/><linearGradient id="New_Gradient_Swatch_1-15" x1="229.05" y1="96.31" x2="339.33" y2="96.31" xlink:href="#New_Gradient_Swatch_1"/><linearGradient id="New_Gradient_Swatch_1-16" x1="351.18" y1="122.05" x2="423.96" y2="122.05" xlink:href="#New_Gradient_Swatch_1"/><linearGradient id="New_Gradient_Swatch_1-17" x1="525.5" y1="98.94" x2="562.78" y2="98.94" xlink:href="#New_Gradient_Swatch_1"/><linearGradient id="New_Gradient_Swatch_1-18" x1="362.4" y1="150.1" x2="524.83" y2="150.1" xlink:href="#New_Gradient_Swatch_1"/><linearGradient id="New_Gradient_Swatch_1-19" x1="344.86" y1="165.68" x2="563.83" y2="165.68" xlink:href="#New_Gradient_Swatch_1"/><linearGradient id="New_Gradient_Swatch_1-20" x1="559.49" y1="291.11" x2="589.54" y2="291.11" xlink:href="#New_Gradient_Swatch_1"/><linearGradient id="New_Gradient_Swatch_1-21" x1="362.4" y1="248.58" x2="558.99" y2="248.58" xlink:href="#New_Gradient_Swatch_1"/><linearGradient id="New_Gradient_Swatch_1-22" x1="371.17" y1="286.2" x2="500.43" y2="286.2" xlink:href="#New_Gradient_Swatch_1"/><linearGradient id="New_Gradient_Swatch_1-23" x1="555.31" y1="184.23" x2="572.85" y2="184.23" xlink:href="#New_Gradient_Swatch_1"/><linearGradient id="New_Gradient_Swatch_1-24" x1="487.43" y1="92.15" x2="526.74" y2="92.15" xlink:href="#New_Gradient_Swatch_1"/><linearGradient id="New_Gradient_Swatch_1-25" x1="548.81" y1="118.46" x2="588.12" y2="118.46" xlink:href="#New_Gradient_Swatch_1"/><linearGradient id="New_Gradient_Swatch_1-26" x1="566.35" y1="245.61" x2="605.65" y2="245.61" xlink:href="#New_Gradient_Swatch_1"/><linearGradient id="New_Gradient_Swatch_1-27" x1="474.28" y1="337.68" x2="513.59" y2="337.68" xlink:href="#New_Gradient_Swatch_1"/><linearGradient id="New_Gradient_Swatch_1-28" x1="7.05" y1="256.01" x2="30.5" y2="256.01" xlink:href="#New_Gradient_Swatch_1"/><linearGradient id="New_Gradient_Swatch_1-29" x1="70.91" y1="109.69" x2="110.22" y2="109.69" xlink:href="#New_Gradient_Swatch_1"/><linearGradient id="New_Gradient_Swatch_1-30" x1="5.14" y1="302.6" x2="44.45" y2="302.6" xlink:href="#New_Gradient_Swatch_1"/><linearGradient id="New_Gradient_Swatch_1-31" x1="48.99" y1="302.6" x2="88.29" y2="302.6" xlink:href="#New_Gradient_Swatch_1"/><linearGradient id="New_Gradient_Swatch_1-32" x1="303.05" y1="131.97" x2="316.05" y2="131.97" xlink:href="#New_Gradient_Swatch_1"/><linearGradient id="New_Gradient_Swatch_1-33" x1="303.05" y1="297.86" x2="316.05" y2="297.86" xlink:href="#New_Gradient_Swatch_1"/><linearGradient id="New_Gradient_Swatch_1-34" x1="253.28" y1="177.59" x2="365.82" y2="177.59" xlink:href="#New_Gradient_Swatch_1"/><linearGradient id="New_Gradient_Swatch_1-35" x1="253.28" y1="248.1" x2="374.11" y2="248.1" xlink:href="#New_Gradient_Swatch_1"/><linearGradient id="New_Gradient_Swatch_1-36" x1="278.16" y1="214.92" x2="291.16" y2="214.92" xlink:href="#New_Gradient_Swatch_1"/></defs><line class="cls-1" x1="73.03" y1="201.76" x2="37.95" y2="236.84"/><polyline class="cls-2" points="157.07 175.46 90.56 175.46 90.56 122.84"/><polyline class="cls-3" points="152.5 201.76 125.64 201.76 20.41 201.76"/><polyline class="cls-4" points="152.5 228.07 99.33 228.07 37.95 289.45"/><polyline class="cls-5" points="157.07 254.38 116.87 254.38 77.94 293.3"/><line class="cls-6" x1="445.7" y1="153.53" x2="493.93" y2="105.31"/><line class="cls-7" x1="493.93" y1="280.68" x2="542.16" y2="328.91"/><line class="cls-8" x1="529" y1="245.61" x2="572.85" y2="245.61"/><line class="cls-9" x1="502.7" y1="184.23" x2="537.77" y2="184.23"/><path class="cls-10" d="M453.73,175.46a153.46,153.46,0,1,0,0,78.91"/><path class="cls-11" d="M345.78,337.71a129.65,129.65,0,0,0,73.6-61.85"/><path class="cls-12" d="M220.42,312.27a129.48,129.48,0,0,0,109.21,29.6"/><path class="cls-13" d="M177.24,231.57a128.66,128.66,0,0,0,31.23,68.81"/><path class="cls-14" d="M219.92,118a128.94,128.94,0,0,0-43.75,96.92"/><path class="cls-15" d="M337.71,89.76a129.58,129.58,0,0,0-105,18.3"/><path class="cls-16" d="M418.28,152a129.71,129.71,0,0,0-64.67-57"/><line class="cls-17" x1="530.09" y1="112.99" x2="558.19" y2="84.89"/><polyline class="cls-18" points="362.4 175.46 467.62 175.46 520.24 122.84"/><polyline class="cls-19" points="344.86 201.76 485.16 201.76 559.23 127.69"/><line class="cls-20" x1="564.08" y1="280.68" x2="584.94" y2="301.54"/><polyline class="cls-21" points="362.4 228.07 511.47 228.07 554.39 270.99"/><polyline class="cls-22" points="371.17 254.38 493.93 254.38 493.93 324.53"/><line class="cls-23" x1="555.31" y1="184.23" x2="572.85" y2="184.23"/><path class="cls-24" d="M520.24,92.15A13.16,13.16,0,1,1,507.08,79,13.16,13.16,0,0,1,520.24,92.15Z"/><path class="cls-25" d="M581.62,118.46a13.16,13.16,0,1,1-13.16-13.15A13.16,13.16,0,0,1,581.62,118.46Z"/><path class="cls-26" d="M599.15,245.61A13.15,13.15,0,1,1,586,232.45,13.15,13.15,0,0,1,599.15,245.61Z"/><path class="cls-27" d="M507.09,337.68a13.16,13.16,0,1,1-13.16-13.15A13.16,13.16,0,0,1,507.09,337.68Z"/><line class="cls-28" x1="25.9" y1="248.88" x2="11.64" y2="263.15"/><path class="cls-29" d="M103.72,109.69A13.16,13.16,0,1,1,90.57,96.54,13.15,13.15,0,0,1,103.72,109.69Z"/><path class="cls-30" d="M11.64,302.6A13.16,13.16,0,1,0,24.8,289.45,13.16,13.16,0,0,0,11.64,302.6Z"/><path class="cls-31" d="M55.49,302.6a13.15,13.15,0,1,0,13.15-13.15A13.16,13.16,0,0,0,55.49,302.6Z"/><line class="cls-32" x1="309.55" y1="119.53" x2="309.55" y2="144.41"/><line class="cls-33" x1="309.55" y1="285.42" x2="309.55" y2="310.31"/><path class="cls-34" d="M326.14,210.77H259.78V144.41h66.36a33.19,33.19,0,0,1,33.18,33.18h0A33.19,33.19,0,0,1,326.14,210.77Z"/><path class="cls-35" d="M259.78,210.77H363.34a4.27,4.27,0,0,1,4.27,4.27v66.12a4.27,4.27,0,0,1-4.27,4.27H259.78a0,0,0,0,1,0,0V210.77A0,0,0,0,1,259.78,210.77Z"/><line class="cls-36" x1="284.66" y1="119.53" x2="284.66" y2="310.31"/></svg>