<svg xmlns="http://www.w3.org/2000/svg" viewBox="0 0 35.86 35.74"><defs><style>.cls-1{fill:#fff;}.cls-2{fill:none;stroke:#fff;stroke-miterlimit:10;}</style></defs><g id="Layer_3" data-name="Layer 3"><path class="cls-1" d="M21.32,22c-.9-.31-1.45-2.66-.34-4a17.12,17.12,0,0,0,1.39-1.9L20.9,17.47l.55-2.24H20a.91.91,0,0,1-.77-.49,1,1,0,0,1-.94-1V8.59a1,1,0,0,1,.91-1,1,1,0,0,1,.8-.53h2.45a5.52,5.52,0,0,0-4.27-1.47,1.69,1.69,0,0,0-.33,0,1.58,1.58,0,0,0-.32,0C12.73,5.55,12,8.87,11.86,11c-.13,2.74,1.23,5,2.94,7,1.11,1.3.56,3.65-.34,4-10,3.44-8.55,7.65-8.55,7.65h24S31.34,25.4,21.32,22Z"/><path class="cls-2" d="M29.7,7.42H19.44a1,1,0,0,0-1,1v5.33a1,1,0,0,0,1,1h2.24L21,17.61l2.9-2.8H29.7a1,1,0,0,0,1-1V8.45A1,1,0,0,0,29.7,7.42Z"/></g></svg>