<svg id="Layer_1" data-name="Layer 1" xmlns="http://www.w3.org/2000/svg" xmlns:xlink="http://www.w3.org/1999/xlink" viewBox="0 0 252.46 171.65"><defs><style>.cls-1,.cls-2,.cls-3,.cls-4{fill-rule:evenodd;}.cls-1{fill:url(#New_Gradient_Swatch_1);}.cls-2{fill:url(#New_Gradient_Swatch_1-2);}.cls-3{fill:url(#New_Gradient_Swatch_1-3);}.cls-4{fill:url(#New_Gradient_Swatch_1-4);}</style><linearGradient id="New_Gradient_Swatch_1" x1="48.14" y1="19.9" x2="48.14" y2="144.5" gradientUnits="userSpaceOnUse"><stop offset="0" stop-color="#1dd5e6"/><stop offset="1" stop-color="#46aef7"/></linearGradient><linearGradient id="New_Gradient_Swatch_1-2" x1="126.63" y1="11" x2="126.63" y2="96.73" xlink:href="#New_Gradient_Swatch_1"/><linearGradient id="New_Gradient_Swatch_1-3" x1="204.09" y1="19.9" x2="204.09" xlink:href="#New_Gradient_Swatch_1"/><linearGradient id="New_Gradient_Swatch_1-4" x1="126.12" y1="91.73" x2="126.12" y2="157.83" xlink:href="#New_Gradient_Swatch_1"/></defs><polygon class="cls-1" points="11 19.9 85.29 82.2 11 144.5 11 19.9"/><path class="cls-2" d="M229,11,126.93,96.63a.48.48,0,0,1-.6,0L24.23,11Z"/><polygon class="cls-3" points="241.24 144.5 166.95 82.2 241.24 19.9 241.24 144.5"/><path class="cls-4" d="M155.59,91.73l78.82,66.1H17.82l78.83-66.1,25.48,21.36a6.43,6.43,0,0,0,7.93,0Z"/></svg>