<svg id="Layer_1" data-name="Layer 1" xmlns="http://www.w3.org/2000/svg" xmlns:xlink="http://www.w3.org/1999/xlink" viewBox="0 0 223.61 224.67"><defs><style>.cls-1{fill-rule:evenodd;fill:url(#New_Gradient_Swatch_1);}</style><linearGradient id="New_Gradient_Swatch_1" x1="110.89" y1="11" x2="110.89" y2="224.07" gradientUnits="userSpaceOnUse"><stop offset="0" stop-color="#1dd5e6"/><stop offset="1" stop-color="#46aef7"/></linearGradient></defs><path class="cls-1" d="M83.67,62.47q-10.76-39-12.14-43.95C68.05,5.91,41.6,11.59,32.43,18-6.3,45,15.25,99.62,36.36,131.21q57.93,77,113.5,82.21c29.41,5.2,64.18-7.65,60.67-42.46q-.72-7.14-3.35-11.19-4.34-6-50.79-16.82-8.91-1.59-18.48,10.16a28.25,28.25,0,0,1-2.93,3.17c-4.89,4.49-7.93,5.31-13.65,2.27-17.44-9.28-47.91-47.27-55-59q-3.11-7.25,4.6-12.8,15-10,12.7-24.26"/></svg>