<svg id="Layer_2" data-name="Layer 2" xmlns="http://www.w3.org/2000/svg" xmlns:xlink="http://www.w3.org/1999/xlink" viewBox="0 0 2002 637"><defs><style>.cls-1{opacity:0.28;}.cls-2{fill:url(#linear-gradient);}.cls-3{fill:url(#linear-gradient-2);}.cls-4{fill:url(#linear-gradient-3);}.cls-5{fill:url(#linear-gradient-4);}.cls-6{fill:url(#linear-gradient-5);}.cls-7{fill:url(#linear-gradient-6);}.cls-8{fill:url(#linear-gradient-7);}.cls-9{fill:url(#linear-gradient-8);}.cls-10{fill:url(#linear-gradient-9);}.cls-11{fill:url(#linear-gradient-10);}.cls-12{fill:url(#linear-gradient-11);}.cls-13{fill:url(#linear-gradient-12);}.cls-14{fill:url(#linear-gradient-13);}.cls-15{fill:url(#linear-gradient-14);}.cls-16{fill:url(#linear-gradient-15);}.cls-17{fill:url(#linear-gradient-16);}.cls-18{fill:url(#linear-gradient-17);}.cls-19{fill:url(#linear-gradient-18);}.cls-20{fill:url(#linear-gradient-19);}.cls-21{fill:url(#linear-gradient-20);}.cls-22{fill:url(#linear-gradient-21);}.cls-23{fill:url(#linear-gradient-22);}.cls-24{fill:url(#linear-gradient-23);}.cls-25{fill:url(#linear-gradient-24);}.cls-26{fill:url(#linear-gradient-25);}</style><linearGradient id="linear-gradient" x1="-4013.4" y1="-4129.48" x2="-1306.37" y2="-4129.48" gradientTransform="matrix(-0.83, 0, 0, 1.14, -1439.86, 4975.43)" gradientUnits="userSpaceOnUse"><stop offset="0" stop-color="#00ffe1"/><stop offset="1" stop-color="#003f87"/></linearGradient><linearGradient id="linear-gradient-2" x1="-4046.04" y1="-4129.32" x2="-1321.85" y2="-4129.32" xlink:href="#linear-gradient"/><linearGradient id="linear-gradient-3" x1="-4078.69" y1="-4129.43" x2="-1337.34" y2="-4129.43" xlink:href="#linear-gradient"/><linearGradient id="linear-gradient-4" x1="-4111.35" y1="-4129.39" x2="-1352.83" y2="-4129.39" xlink:href="#linear-gradient"/><linearGradient id="linear-gradient-5" x1="-4144.02" y1="-4129.16" x2="-1368.32" y2="-4129.16" xlink:href="#linear-gradient"/><linearGradient id="linear-gradient-6" x1="-4176.69" y1="-4128.79" x2="-1383.81" y2="-4128.79" xlink:href="#linear-gradient"/><linearGradient id="linear-gradient-7" x1="-4209.39" y1="-4128.33" x2="-1399.29" y2="-4128.33" xlink:href="#linear-gradient"/><linearGradient id="linear-gradient-8" x1="-4242.09" y1="-4127.81" x2="-1414.78" y2="-4127.81" xlink:href="#linear-gradient"/><linearGradient id="linear-gradient-9" x1="-4274.79" y1="-4127.3" x2="-1430.26" y2="-4127.3" xlink:href="#linear-gradient"/><linearGradient id="linear-gradient-10" x1="-4307.49" y1="-4126.71" x2="-1445.75" y2="-4126.71" xlink:href="#linear-gradient"/><linearGradient id="linear-gradient-11" x1="-4340.18" y1="-4126.1" x2="-1461.24" y2="-4126.1" xlink:href="#linear-gradient"/><linearGradient id="linear-gradient-12" x1="-4372.88" y1="-4125.5" x2="-1476.73" y2="-4125.5" xlink:href="#linear-gradient"/><linearGradient id="linear-gradient-13" x1="-4405.57" y1="-4124.88" x2="-1492.21" y2="-4124.88" xlink:href="#linear-gradient"/><linearGradient id="linear-gradient-14" x1="-4438.27" y1="-4124.25" x2="-1507.7" y2="-4124.25" xlink:href="#linear-gradient"/><linearGradient id="linear-gradient-15" x1="-4470.96" y1="-4123.62" x2="-1523.19" y2="-4123.62" xlink:href="#linear-gradient"/><linearGradient id="linear-gradient-16" x1="-4503.65" y1="-4122.98" x2="-1538.68" y2="-4122.98" xlink:href="#linear-gradient"/><linearGradient id="linear-gradient-17" x1="-4536.34" y1="-4122.33" x2="-1554.17" y2="-4122.33" xlink:href="#linear-gradient"/><linearGradient id="linear-gradient-18" x1="-4569.04" y1="-4121.18" x2="-1569.65" y2="-4121.18" xlink:href="#linear-gradient"/><linearGradient id="linear-gradient-19" x1="-4601.73" y1="-4117.78" x2="-1585.14" y2="-4117.78" xlink:href="#linear-gradient"/><linearGradient id="linear-gradient-20" x1="-4634.42" y1="-4114.39" x2="-1600.63" y2="-4114.39" xlink:href="#linear-gradient"/><linearGradient id="linear-gradient-21" x1="-4667.11" y1="-4110.99" x2="-1616.11" y2="-4110.99" xlink:href="#linear-gradient"/><linearGradient id="linear-gradient-22" x1="-4699.8" y1="-4107.59" x2="-1631.6" y2="-4107.59" xlink:href="#linear-gradient"/><linearGradient id="linear-gradient-23" x1="-4732.49" y1="-4104.2" x2="-1647.09" y2="-4104.2" xlink:href="#linear-gradient"/><linearGradient id="linear-gradient-24" x1="-4765.18" y1="-4100.82" x2="-1662.58" y2="-4100.82" xlink:href="#linear-gradient"/><linearGradient id="linear-gradient-25" x1="-4797.87" y1="-4097.42" x2="-1678.06" y2="-4097.42" xlink:href="#linear-gradient"/></defs><g class="cls-1"><path class="cls-2" d="M490.72,358.8c96.6,0,193.34-7.15,285.45-21.46,95.64-14.86,188.94-35.21,279.17-54.88,92-20.06,187.07-40.79,284.59-55.71,181.28-27.67,381.41-27.35,563.52.92l.25-.88c-182.27-28.29-382.57-28.61-564-.92C1242.11,240.8,1147,261.54,1055,281.6c-90.21,19.67-183.49,40-279.08,54.87-182,28.26-382.17,28.59-563.52.91-72.14-11-123.34-27.09-177.55-44.1-90.55-28.4-184.17-57.77-386.31-66.5l-.07.9c201.93,8.71,295.46,38.05,385.9,66.43,54.27,17,105.53,33.1,177.78,44.15C301.9,352,396.25,358.8,490.72,358.8Z"/><path class="cls-3" d="M586.19,356.78c73.65,0,141.29-4.36,204.78-13,101.11-14.06,198.65-38.64,293-62.41,88.2-22.23,179.39-45.21,273.9-59.76,169.78-26.06,333.6-8.09,523.29,12.73q24.54,2.69,49.58,5.41l.18-.89q-25.07-2.7-49.58-5.41c-189.8-20.83-353.72-38.81-523.72-12.72-94.59,14.56-185.81,37.55-274,59.79-94.29,23.76-191.79,48.34-292.81,62.38-156,21.34-337.25,16.58-570.54-15C148.82,318.17,100,306,48.38,293.15c-87.55-21.82-178.08-44.38-386.93-53.48l-.07.89C-129.93,249.66-39.48,272.2,48,294,97.41,306.31,148.52,319,220,328.74,358.5,347.48,478.72,356.78,586.19,356.78Z"/><path class="cls-4" d="M665.41,357.9c47.29,0,94.17-2.29,140.36-7.79,104.1-12.79,203.46-41.22,299.55-68.7,86.76-24.82,176.47-50.49,270.45-65.05,124.32-19.18,236.69-4.67,366.81,12.12,67.05,8.65,136.38,17.6,215.4,23.25l.12-.9c-79-5.64-148.29-14.58-215.31-23.23-130.24-16.81-242.72-31.33-367.27-12.11-94.08,14.57-183.84,40.25-270.64,65.08-96,27.47-195.33,55.88-299.31,68.65-165.56,19.72-340.36-1.8-509.4-22.61-22.43-2.76-45.63-5.62-68.15-8.29-67.81-8.06-115-16.6-160.72-24.86-88.75-16-172.58-31.21-392.95-40.91l-.07.9c220.25,9.69,304,24.84,392.73,40.88,45.7,8.27,93,16.81,160.82,24.88,22.51,2.67,45.71,5.52,68.14,8.28C418,342.51,543,357.9,665.41,357.9Z"/><path class="cls-5" d="M724.17,361.13a951.66,951.66,0,0,0,96.4-4.64c106.25-11.38,206.62-43.5,303.68-74.57,86.11-27.56,175.16-56.06,269.44-70.75,108.83-16.88,201.87-.64,309.6,18.16,79.77,13.92,170.18,29.69,282,34.42l.07-.89c-111.66-4.73-202-20.5-281.74-34.41-107.87-18.82-201-35.07-310.13-18.15-94.41,14.7-183.51,43.22-269.68,70.8-97,31-197.27,63.14-303.36,74.5-137.11,14-281.13-6.25-420.4-25.81-54.23-7.62-110.31-15.49-164.16-21-45.9-4.7-81.87-8.75-113.6-12.32-107.26-12.07-172-19.35-435-31l-.07.89c262.92,11.68,327.65,19,434.88,31,31.74,3.57,67.7,7.62,113.61,12.32,53.82,5.5,109.88,13.38,164.11,21C506.85,345.71,616.74,361.13,724.17,361.13Z"/><path class="cls-6" d="M768,365.63c22.58,0,45-.86,67.33-2.76,108-9.9,209-45.65,306.7-80.22,85.83-30.38,174.57-61.79,269.54-76.67,101-15.74,182.94,3,277.83,24.72,87.12,19.93,185.87,42.53,323,45.08l0-.9c-137-2.55-235.67-25.12-322.72-45-95.06-21.74-177.15-40.53-278.45-24.74-95.1,14.91-183.92,46.34-269.81,76.74C1044,316.38,943.05,352.1,835.23,362c-124.07,10.58-253.5-11.32-378.68-32.48-70.37-11.9-143.13-24.21-212.9-30.24C132.52,289.64,85.27,288.91,7,287.7c-62.85-1-148.93-2.3-306.82-9.38l-.08.9c157.92,7.07,244,8.4,306.87,9.38,78.25,1.21,125.49,1.94,236.55,11.55,69.71,6,142.44,18.33,212.78,30.22C559.08,347.75,664.76,365.63,768,365.63Z"/><path class="cls-7" d="M803.09,370.83q23.64,0,47.08-1.58c109.59-8.39,211-47.72,309.13-85.75,85.72-33.24,174.37-67.61,270.23-82.71,96.27-15.08,170.55,6.37,256.56,31.2,90.65,26.17,193.36,55.82,352.25,55.82h1.4v-.9h-1.39c-158.68,0-261.25-29.62-351.81-55.76-86.19-24.88-160.62-46.37-257.26-31.24-96,15.13-184.74,49.53-270.54,82.79-98,38-199.33,77.28-308.68,85.66C733.16,376.44,612,352,494.79,328.37c-80.39-16.21-163.51-33-243.33-38.64-95.06-6.75-141-3.69-199.2.18-66.22,4.42-148.64,9.91-339.2,1.3l-.07.9c190.65,8.61,273.12,3.11,339.38-1.3,58.12-3.87,104-6.93,199-.18,79.72,5.65,162.79,22.41,243.13,38.61C596.12,349.73,700.76,370.83,803.09,370.83Z"/><path class="cls-8" d="M832.75,376.48q16.15,0,32.23-.84c111-6.87,208.25-47.84,311.18-91.21,85.75-36.13,174.42-73.49,271.28-88.83,93.18-14.66,161.56,9.5,240.74,37.48C1772.94,263,1877.65,300,2046.11,300c6.86,0,13.8-.06,20.87-.19l0-.89c-180.54,3.2-290.15-35.54-378.24-66.67-79.39-28.05-147.94-52.27-241.52-37.55-97,15.37-185.8,52.77-271.63,88.93C1072.75,327,975.63,367.89,864.88,374.74,752.27,380.76,636.22,353.41,524,327c-87.38-20.59-177.74-41.89-264.72-46.75-92.12-5.16-137,2-188.9,10.23C3.14,301.13-73.06,313.25-274,304.1l-.07.89C-73,314.15,3.32,302,70.62,291.31c51.84-8.24,96.61-15.36,188.56-10.21C346,286,436.31,307.24,523.62,327.82,625.29,351.78,730.1,376.48,832.75,376.48Z"/><path class="cls-9" d="M858.94,382.41c7,0,13.89-.13,20.84-.39,112.38-5.33,209.84-49.67,313-96.6,85.83-39,174.59-79.42,272.55-95,91-14.38,151.52,11.19,228.15,43.57,83.32,35.21,185.77,78.48,363.9,78.48q17.9,0,36.81-.59l0-.9c-200.81,6.42-311.29-40.26-400.06-77.77-73.8-31.18-137.55-58.12-229-43.66-98.17,15.63-187,56-272.94,95.13-103.05,46.87-200.39,91.15-312.46,96.46-110,4.21-222.67-26.24-331.66-55.69-92.66-25-188.47-50.93-281-54.75-91.55-3.78-134,7.26-183.19,20-64.52,16.77-137.64,35.77-345,26.26l-.08.9c207.63,9.52,280.88-9.52,345.5-26.32,49.05-12.75,91.4-23.76,182.73-20,92.31,3.82,188,29.68,280.61,54.7C649.86,353.9,755.37,382.41,858.94,382.41Z"/><path class="cls-10" d="M882.8,388.54c3.93,0,7.85-.05,11.78-.14,113.69-3.79,211.33-51.46,314.71-101.94,86-42,174.88-85.39,274-101.25,89.43-14.2,146,13.89,217.66,49.46,81.81,40.61,182,90.36,370,90.36q24.29,0,50.57-1.15l-.08-.89c-220.68,9.77-331.06-45-419.77-89.07-71.88-35.68-128.65-63.86-218.6-49.58-99.33,15.89-188.33,59.35-274.4,101.37-103.23,50.41-200.74,98-314.09,101.79-108.34,2.56-218.81-31.1-325.63-63.67-96.85-29.52-197-60.05-294-62.68C183.08,258.66,142.65,273.63,95.84,291c-61.72,22.83-131.67,48.72-344.07,38.91l-.08.89c212.72,9.83,282.84-16.11,344.7-39,46.66-17.27,87-32.17,178.46-29.72,96.78,2.63,196.83,33.13,293.59,62.62C671.51,356.08,778,388.53,882.8,388.54Z"/><path class="cls-11" d="M905,394.8l4.36,0c114.95-2.24,212.75-53.24,316.29-107.24,86.15-44.93,175.23-91.39,275.53-107.52,88.28-14.07,141.4,16.48,208.65,55.17,80.19,46.12,178.22,102.5,376,102.5,19.93,0,40.85-.57,62.89-1.78l-.09-.9c-240.26,13.23-349.92-49.85-438-100.53-67.51-38.83-120.83-69.5-209.66-55.34-100.54,16.17-189.72,62.69-276,107.67-103.39,53.92-201,104.84-315.61,107.07-107.48,1-216.37-35.94-321.73-71.69-100.35-34-204.11-69.24-304.92-70.57-92.46-1.19-132.85,18.61-175.61,39.58-58.9,28.89-125.67,61.63-342.43,51.56l-.07.89c217.16,10.1,284.11-22.73,343.18-51.7,42.59-20.89,82.83-40.63,174.91-39.44,100.56,1.34,204.2,36.5,304.43,70.5C691.17,358.31,798.74,394.79,905,394.8Z"/><path class="cls-12" d="M924.18,401.16c116.19-.69,214.11-55,317.78-112.51,86.35-47.89,175.64-97.42,277.16-113.82,87.41-14,137.41,19,200.72,60.72,78.48,51.74,174.22,114.87,381.9,114.87,23.29,0,48-.79,74.21-2.49l-.11-.89c-259.68,16.75-368.09-54.73-455.19-112.16-63.57-41.91-113.77-75-201.79-60.93-101.78,16.45-191.17,66-277.63,114C1137.72,345.35,1040,399.58,924.18,400.26c-107-.46-214.92-40.76-319.32-79.74C501.57,282,394.76,242.09,290.64,242.09h-.11c-93.31.06-131.79,24-172.52,49.38C61.91,326.39-1.65,366-222.42,355.64l-.08.9c221.23,10.35,285-29.35,341.29-64.38,40.56-25.26,78.87-49.11,171.74-49.17h.11c103.83,0,210.5,39.82,313.67,78.33C708.84,360.34,816.93,400.69,924.18,401.16Z"/><path class="cls-13" d="M941.61,407.55c116.23,0,213.58-57.21,316.59-117.75,86.56-50.88,176.08-103.48,278.83-120.16,86.78-13.95,133.93,21.38,193.62,66.12,42.45,31.81,90.56,67.86,163.18,93.53C1977.81,359,2079,369,2203.18,360l-.12-.89c-279,20.34-385.76-59.66-471.54-123.94-60-44.93-107.31-80.42-194.75-66.37-103,16.73-192.65,69.4-279.33,120.34-102.84,60.44-200,117.55-315.83,117.55H939c-106.85-1.89-214.19-45.57-318-87.82-106-43.12-215.55-87.68-322.67-86.26-94.28,1.32-130.88,29.44-169.63,59.21C75.42,332.71,15.05,379.1-209.52,368.53l-.08.89C15.51,380,76.12,333.47,129.58,292.4c38.57-29.64,75-57.63,168.78-58.94,1.69,0,3.37,0,5.06,0,105.22,0,212.85,43.8,317,86.19,103.94,42.29,211.42,86,318.57,87.93Z"/><path class="cls-14" d="M960.41,414c51.17,0,103.55-12.1,159.9-36.89C1172.84,354,1224.46,322,1274.39,291c86.8-53.86,176.54-109.56,280.56-126.53,86.29-13.92,130.81,23.73,187.17,71.4,41.54,35.13,88.62,75,163,103.27,64.78,24.65,141,36.85,231.24,36.85q44.68,0,94-4l-.13-.89c-298.28,24-403.06-64.63-487.25-135.84-56.62-47.89-101.35-85.72-188.35-71.68-104.31,17-194.17,72.78-281.08,126.72-101.71,63.11-197.89,122.8-313,122.8-2.26,0-4.52,0-6.8-.07-107-3.29-214-50.38-317.49-95.93C528,269.43,416.05,220.14,306.15,223c-95.32,2.58-130.07,34.88-166.86,69.08C88.81,339,31.58,392.23-196.62,381.41l-.08.9c228.85,10.84,286.27-42.54,336.94-89.64,36.61-34,71.19-66.18,166-68.74,109.53-2.89,221.37,46.34,329.52,93.93,103.62,45.61,210.77,92.76,318.07,96.06C956,414,958.2,414,960.41,414Z"/><path class="cls-15" d="M979.32,420.48c50.84,0,101-12.1,156.85-37.71,52.7-24.17,102.09-56.44,154.37-90.6,87-56.87,177-115.67,282.33-132.92,86-13.92,128,26,181.25,76.54,40.53,38.49,86.48,82.1,162.57,113.1,88.24,35.94,199.76,47.43,341,35.12l-.15-.89c-317.51,27.69-424.39-73.79-502.43-147.88-53.5-50.79-95.76-90.91-182.47-76.86-105.6,17.29-195.72,76.17-282.87,133.12C1186,359.31,1087.9,423.37,968.66,419.4c-107.33-4.65-214.23-55.19-317.6-104-55.32-26.15-112.52-53.19-168.62-72.53-62.9-21.69-118-31.27-168.47-29.32-96.43,3.83-129.33,40.33-164.17,79C102.12,345.39,48.07,405.36-183.72,394.3l-.08.89c103.83,5,181.11-3.8,236.28-26.77,48.57-20.23,73.87-48.3,98.33-75.44C185.48,254.52,218.22,218.2,314,214.4,426.05,210,540.11,264,650.4,316.1,753.91,365,860.94,415.63,968.6,420.3,972.17,420.42,975.75,420.48,979.32,420.48Z"/><path class="cls-16" d="M997.47,427c50.21,0,99.71-12.4,154.55-38.56,52.86-25.22,102.3-59.14,154.65-95.05,87.28-59.88,177.54-121.8,284.12-139.33,85.73-13.94,125.46,28.21,175.77,81.58,39.45,41.85,84.16,89.28,161.85,123,66.23,28.74,146.73,43,244.09,43q52.83,0,112.39-5.57l-.15-.89c-336.74,31.42-441-79.23-517.19-160-50.56-53.64-90.5-96-177-81.95-106.91,17.59-197.29,79.59-284.69,139.55-103.85,71.25-202,138.55-322.36,133-107.83-6-214.78-60-318.2-112.21-56.32-28.43-114.55-57.83-171.7-78.71C429.52,211.45,373.33,201.34,321.79,204c-97.57,5.07-128.63,45.79-161.52,88.91-44.91,58.86-95.82,125.58-331.08,114.3l-.08.89c105.44,5.06,183.1-5,237.44-30.65,47.88-22.63,71.72-53.88,94.78-84.1,32.72-42.9,63.63-83.42,160.54-88.46C436.26,199,552.33,257.64,664.59,314.31,768.15,366.59,875.23,420.66,983.4,426.68Q990.45,427,997.47,427Z"/><path class="cls-17" d="M1015.29,433.55c49.67,0,98.61-12.7,152.57-39.43,53-26.27,102.51-61.83,154.91-99.49,87.54-62.9,178.06-127.95,285.94-145.76,85.58-14,123.12,30.37,170.65,86.51,38.3,45.24,81.71,96.51,160.91,133,92,42.37,213.69,55.36,371.86,39.72l-.16-.89c-355.95,35.19-457.46-84.71-531.58-172.26-47.78-56.44-85.52-101-172-86.92-108.21,17.87-198.85,83-286.51,146C1218,368.67,1119.84,439.21,998.31,432.16c-108.47-7.33-215.59-64.8-319.2-120.38-57.25-30.72-116.46-62.48-174.58-84.9-65.15-25.13-122.37-35.74-174.93-32.43-98.73,6.33-128,51.28-158.89,98.87-42.13,64.81-89.9,138.27-328.62,126.75l-.08.9c107,5.16,185.05-6.13,238.59-34.52,47.18-25,69.56-59.44,91.21-92.74,30.78-47.35,59.86-92.08,157.89-98.37C446.3,188,564.3,251.29,678.4,312.5c103.74,55.65,211,113.2,319.8,120.56Q1006.76,433.55,1015.29,433.55Z"/><path class="cls-18" d="M1032.83,440.13c49.22,0,97.68-13,150.85-40.32s102.73-64.52,155.18-103.91c87.8-65.94,178.58-134.12,287.76-152.23,85.53-14,121,32.5,165.86,91.36,37.08,48.64,79.12,103.77,159.77,143,93.83,45.63,220.45,59.39,387.12,42.07l-.17-.89c-375.17,39-473.71-90.25-545.67-184.61-45.12-59.19-80.76-105.93-167.17-91.79C1516.83,161,1425.91,229.24,1338,295.27c-104,78.09-202.2,151.85-324.87,143.28C903.94,429.89,796.52,368.92,692.63,310c-58.14-33-118.26-67.12-177.31-91.07-66.19-26.85-124.38-38-177.9-34-99.91,7.59-127.29,56.78-156.28,108.87C141.77,364.53,97.15,444.69-145,433l-.08.89c108.57,5.27,187-7.28,239.72-38.36,46.47-27.39,67.39-65,87.63-101.36,28.85-51.83,56.1-100.79,155.28-108.32C456.3,177,576.05,244.93,691.89,310.67c104,59,211.58,120.09,321.12,128.77Q1023,440.13,1032.83,440.13Z"/><path class="cls-19" d="M-87.89,447.86c87.3,0,151.84-14.27,196.52-43.32,45.77-29.76,65.24-70.53,84.08-110,26.9-56.32,52.32-109.52,152.66-118.3,120.8-10.39,236.86,59,359.75,132.54,104.39,62.44,212.33,127,322.69,137,56.69,4.63,111.23-8.18,171.7-40.32,53.33-28.35,102.92-67.19,155.43-108.32,88-69,179.11-140.3,289.6-158.7,85.52-14,119,34.57,161.33,96.11,60.9,88.49,141.48,205.51,423.28,205.52,41.32,0,86.91-2.51,137.45-8l-.18-.88c-394.4,42.82-489.81-95.82-559.47-197-42.59-61.89-76.23-110.77-162.67-96.57-110.86,18.45-202,89.88-290.23,159C1250,378.06,1151.73,455,1028,444.93c-110-10-217.82-74.45-322.08-136.8-59-35.28-120-71.76-179.9-97.25-67.17-28.56-126.31-40.17-180.75-35.49-101.1,8.85-126.63,62.3-153.67,118.9-36.62,76.65-78.13,163.52-323.67,151.56l-.07.89Q-109.12,447.87-87.89,447.86Z"/><path class="cls-20" d="M-76.48,460.72c89.39,0,154.78-15.52,199.11-47.12,45.06-32.13,63.08-76.05,80.51-118.53,25-60.83,48.54-118.29,150.07-128.32,55.08-5.34,114.83,6.72,182.7,36.88,60.68,27,122.47,65.79,182.22,103.32C823,372.8,931.37,440.9,1042.62,452.2q12.38,1.16,24.62,1.15c48.53,0,96.19-13.65,148.08-42.15,53.49-29.38,103.12-69.86,155.68-112.72,88.32-72,179.65-146.5,291.46-165.19,85.56-14.1,117.1,36.59,157,100.78C1878.16,328.37,1955.72,453,2247.87,453c43.66,0,92.07-2.78,146-8.86l-.19-.89C1980,489.92,1887.87,341.83,1820.6,233.69c-40.16-64.55-71.89-115.52-158.41-101.27C1550,151.16,1458.55,225.75,1370.1,297.88,1266,382.77,1167.68,463,1042.78,451.31,931.89,440,823.62,372,718.92,306.27c-59.79-37.56-121.62-76.39-182.39-103.41-68.11-30.27-128.12-42.37-183.48-37-102.3,10.11-126,67.84-151.07,129C184.6,337.18,166.62,381,121.78,413c-50.86,36.26-129.69,51.23-241,45.78l-.08.9Q-97,460.71-76.48,460.72Z"/><path class="cls-21" d="M-64.87,473.58c91.4,0,157.55-16.77,201.48-50.91,44.36-34.48,60.94-81.55,77-127.08,23-65.36,44.74-127.09,147.46-138.37,55.94-6,116.55,6.52,185.31,38.37,61.49,28.5,124.08,69.66,184.61,109.47C836.3,374.34,945.23,446,1057.43,458.57c57.71,6,112.9-7.2,173.7-41.67,53.64-30.41,103.32-72.52,155.92-117.1,88.59-75.08,180.2-152.73,293.33-171.7,85.66-14.17,115.35,38.59,152.95,105.37,31.53,56,70.76,125.71,155.42,173.38,70.14,39.49,161.81,59.08,277.84,59.08q71.05,0,154.48-9.77l-.19-.88C1988,505.83,1899.23,348.21,1834.45,233.13c-37.81-67.17-67.68-120.24-154.34-105.91-113.52,19.05-205.26,96.8-294,172C1282,387.49,1183.6,470.87,1057.6,457.69,945.77,445.13,837,373.58,731.77,304.39c-60.57-39.83-123.2-81-184.78-109.55-69-32-129.88-44.58-186.13-38.5-103.51,11.36-125.34,73.37-148.46,139-16,45.41-32.52,92.37-76.67,126.68C85.67,461,6.49,477.17-106.3,471.62l-.08.89Q-84.81,473.58-64.87,473.58Z"/><path class="cls-22" d="M-53.09,486.44c93.33,0,160.19-18,203.68-54.69,43.66-36.82,58.79-87,73.42-135.61C245.07,226.25,265,160.23,368.88,147.69,425.65,141,487.09,154,556.71,187.55c62.28,30,125.65,73.52,186.93,115.6C849.54,375.87,959,451.06,1072.23,465a248.72,248.72,0,0,0,28.74,1.68c48,0,95.1-14.28,146-44,53.79-31.43,103.52-75.17,156.16-121.47,88.86-78.15,180.75-159,295.21-178.23,85.79-14.24,113.71,40.55,149,109.9,30.22,59.29,67.82,133.07,153.72,183.6,100.31,59,246.6,75.93,447.24,51.78l-.2-.88c-200.28,24.11-346.26,7.23-446.28-51.61-85.64-50.37-123.18-124-153.34-183.21C1812.94,162.73,1784.86,107.63,1698,122c-114.86,19.34-206.88,100.27-295.87,178.53C1298,392.22,1199.51,478.79,1072.43,464.07c-112.83-13.85-222.2-88.95-328-161.57-61.32-42.11-124.73-85.65-187.09-115.7-69.89-33.68-131.61-46.76-188.7-40C264,159.44,244,225.75,222.83,296c-14.6,48.45-29.69,98.56-73.15,135.21-49.26,41.55-128.78,59-243.08,53.34l-.08.9Q-72.51,486.43-53.09,486.44Z"/><path class="cls-23" d="M-41.17,499.3c95.19,0,162.72-19.24,205.74-58.45s56.65-92.53,69.88-144.13c19.1-74.45,37.13-144.77,142.26-158.56,57.59-7.42,119.84,6.1,190.3,41.33,63,31.52,127.17,77.38,189.18,121.74C862.68,377.39,972.8,456.15,1087,471.33c58.74,7.45,114.57-6.22,175.7-43,53.93-32.46,103.7-77.82,156.39-125.83,89.13-81.23,181.29-165.22,297.09-184.79,39.52-6.57,68.82,1.19,92.22,24.44,21.44,21.29,36.11,53.1,53.1,89.93,28.87,62.57,64.8,140.45,151.9,193.85,71.71,44,167.92,65.77,291.63,65.78q77.86,0,170.47-11.49l-.2-.89c-208.77,25.84-359.61,8.15-461.12-54.09-86.84-53.24-122.71-131-151.53-193.45C1829.33,159.48,1803,102.36,1716,116.84c-116.21,19.63-208.51,103.75-297.76,185.09-104.26,95-202.74,184.77-330.94,168.52C973.38,455.32,863.4,376.65,757,300.58c-62-44.38-126.22-90.27-189.35-121.84C497,143.38,434.41,129.81,376.5,137.28c-106,13.9-124.07,84.51-143.24,159.27C220.05,348,206.4,401.29,163.62,440.28,115.15,484.46,35.3,503.14-80.49,497.39l-.09.89Q-60.14,499.3-41.17,499.3Z"/><path class="cls-24" d="M-29.13,512.17c97,0,165.15-20.47,207.67-62.22,42.27-41.5,54.51-98,66.36-152.62,17.12-79,33.3-153.65,139.64-168.69,58.4-8.13,121.43,5.87,192.72,42.78,63.78,33,128.64,81.24,191.37,127.86,107.13,79.62,217.9,162,333.21,178.43a235,235,0,0,0,32.07,2.22c114.57,0,205.47-85.73,301.25-176.06,89.4-84.31,181.84-171.49,299-191.35,39.62-6.61,68.63,1.53,91.3,25.61,20.78,22.08,34.53,55,50.45,93.16,27.5,65.87,61.72,147.85,150,204.15,48.41,30.87,107.09,50.9,179.4,61.22,82,11.72,182.12,10.23,297.5-4.42l-.2-.88c-217.28,27.58-373,9.06-475.91-56.6-88-56.13-122.17-138-149.62-203.73-31.23-74.84-55.91-133.94-143.18-119.38-117.55,19.92-210.12,107.23-299.65,191.66-104.31,98.38-202.84,191.3-332.14,173.52-114.94-16.42-225.58-98.65-332.58-178.18C706.73,252,641.83,203.76,578,170.69c-71.57-37.06-134.91-51.1-193.65-42.94-107.18,15.17-123.42,90.1-140.61,169.44-11.82,54.52-24,110.9-66.13,152.22-47.68,46.81-127.88,66.72-245.16,60.87l-.08.89Q-47.7,512.16-29.13,512.17Z"/><path class="cls-25" d="M-17,525c98.76,0,167.5-21.7,209.5-66C234.09,415.23,244.9,355.62,255.35,298c15.15-83.59,29.46-162.55,137-178.85,59.19-8.82,123,5.65,195.08,44.24,64.52,34.53,130.1,85.08,193.51,134,107.8,83.09,219.27,169,335.69,186.77a229.67,229.67,0,0,0,33.71,2.51c114.78,0,205.38-88.31,300.83-181.35,89.67-87.4,182.39-177.77,300.86-197.92,39.73-6.65,68.47,1.85,90.43,26.76,20.15,22.85,33,56.91,47.88,96.35,26.09,69.18,58.58,155.27,148,214.48,49,32.48,109.1,53.52,183.58,64.33,84.52,12.27,188.18,10.59,308.09-5l-.21-.89c-225.79,29.33-386.28,10-490.65-59.13-89.14-59-121.57-145-147.62-214-14.91-39.51-27.78-73.63-48-96.6-22.28-25.26-51.42-33.89-91.72-27.15-118.9,20.23-211.76,110.73-301.56,198.26-104.36,101.72-202.94,197.8-333.33,178.5-116.05-17.7-227.38-103.52-335.05-186.51-63.45-48.92-129.07-99.5-193.67-134.08-72.38-38.75-136.51-53.26-196-44.39-108.41,16.43-122.78,95.7-138,179.61-10.43,57.55-21.21,117.06-62.63,160.71C144.62,508,64.1,529.11-54.69,523.16l-.08.9Q-35.19,525-17,525Z"/><path class="cls-26" d="M-4.76,537.91C95.73,537.91,165,515,206.48,468.19c40.89-46.15,50.27-108.9,59.33-169.57,13.17-88.18,25.61-171.47,134.4-189,60-9.52,124.53,5.42,197.4,45.68,65.22,36,131.51,88.93,195.61,140.08,108.49,86.57,220.68,176.09,338.24,195.13a225.51,225.51,0,0,0,35.26,2.81c115,0,205.36-90.9,300.5-186.63,89.94-90.49,182.94-184.07,302.75-204.51,39.85-6.69,68.33,2.17,89.61,27.89,19.54,23.62,31.51,58.79,45.38,99.51,24.67,72.49,55.39,162.7,145.9,224.84,49.67,34.1,111.08,56.16,187.72,67.46,87,12.82,194.22,10.95,318.66-5.55l-.21-.88c-234.31,31.07-399.61,10.89-505.34-61.69-90.25-62-120.92-152-145.55-224.39-13.89-40.8-25.89-76-45.53-99.76-21.59-26.1-50.48-35.09-90.91-28.31-120.25,20.52-213.39,114.24-303.46,204.86-104.41,105.06-203,204.3-334.52,183.48-117.19-19-229.25-108.4-337.61-194.87C730,243.55,663.65,190.63,598.34,154.55c-35.16-19.43-67.37-32.66-98.48-40.46-34.9-8.76-67.58-10.52-99.91-5.39C290.3,126.41,277.82,210,264.6,298.52c-9.05,60.57-18.4,123.2-59.14,169.18-46.11,52.05-127,74.4-247.24,68.35l-.09.89Q-22.65,537.92-4.76,537.91Z"/></g></svg>